<svg width="22" height="24" viewBox="0 0 22 24" fill="none" xmlns="http://www.w3.org/2000/svg">
<path d="M2.13593 0.0889397C1.49843 0.29519 0.9828 0.806127 0.715613 1.49519L0.617175 1.75769L0.603113 9.61863L0.58905 17.4843H1.71874H2.84374V9.84363V2.203H9.3828H15.9219V1.10144V-0.000122765L9.16249 0.00456474C2.79686 0.00456474 2.38436 0.00925224 2.13593 0.0889397Z" fill="#FAFAFA"/>
<path d="M6.52343 4.44832C5.77812 4.71551 5.27656 5.22176 5.07031 5.9202C5.00937 6.12645 4.99999 7.17645 4.99999 14.1796C4.99999 22.9452 4.98124 22.3921 5.26718 22.903C5.43124 23.1983 5.80155 23.5686 6.09687 23.7327C6.60312 24.0139 6.21405 23.9999 13.1844 23.9999C19.264 23.9999 19.5828 23.9952 19.85 23.9155C20.4969 23.7093 21.0125 23.203 21.2844 22.5046L21.3828 22.2421V14.1796V6.11707L21.2797 5.84988C21.0687 5.29207 20.689 4.85145 20.2156 4.60769C19.7047 4.34519 20.0703 4.35926 13.1562 4.36394C7.13749 4.36394 6.74374 4.37332 6.52343 4.44832ZM19.1562 14.1796V21.7968H13.1797H7.20312V14.1796V6.56238H13.1797H19.1562V14.1796Z" fill="#FAFAFA"/>
</svg>
