<svg width="23" height="23" viewBox="0 0 23 23" fill="none" xmlns="http://www.w3.org/2000/svg">
<path d="M2.27362 0.0619986C1.76268 0.188561 1.32674 0.441686 0.909553 0.854186C0.478303 1.28544 0.239241 1.69794 0.0939285 2.26512C0.000178465 2.62137 0.000178465 2.82294 0.000178465 11.4432C0.000178465 21.2589 -0.0185715 20.5932 0.328303 21.3011C0.670491 21.9995 1.3408 22.5807 2.06737 22.8198L2.41424 22.9323H9.37518H16.3361L16.6642 22.8292C17.5455 22.5479 18.2486 21.8682 18.6049 20.9495L18.7267 20.6354L18.7408 18.2261L18.7549 15.8167L18.3142 16.2386C17.0955 17.4011 16.3361 17.762 14.3158 18.1464C13.1017 18.3761 12.783 18.3995 12.3611 18.2917C11.3767 18.0339 10.6408 17.1151 10.6408 16.1354C10.6408 15.7979 11.2221 13.1682 11.3908 12.737C11.5502 12.3245 11.8455 11.8042 12.1174 11.4479C12.258 11.2651 13.5892 9.90575 15.0799 8.41981C17.7939 5.71981 18.0377 5.4995 18.6236 5.22294L18.8439 5.11981L18.8299 3.71356C18.8205 2.32606 18.8158 2.30262 18.6986 1.99325C18.3471 1.08387 17.6674 0.418249 16.7814 0.113561L16.4767 0.0104361L9.5158 0.0010611C3.56268 -0.0036264 2.51268 0.0057486 2.27362 0.0619986ZM14.1564 3.41356C14.433 3.4745 14.7002 3.68075 14.7939 3.91044C14.9392 4.25262 14.8408 4.79637 14.5971 5.00731C14.3205 5.24637 14.583 5.237 9.34237 5.237C4.66424 5.237 4.46737 5.23231 4.27987 5.14794C3.87674 4.96044 3.67518 4.38856 3.88143 3.99012C4.00799 3.74637 4.26112 3.512 4.48143 3.43231C4.63143 3.37606 5.47987 3.36669 9.2908 3.362C12.4877 3.362 13.9924 3.37606 14.1564 3.41356ZM10.3924 7.36981C10.6783 7.45419 10.9502 7.72606 10.9971 7.97919C11.0908 8.47606 10.9174 8.88856 10.5471 9.08075C10.3689 9.16981 10.2658 9.1745 7.42518 9.1745C4.52362 9.1745 4.48143 9.1745 4.27518 9.07606C3.56737 8.72919 3.68455 7.60887 4.45799 7.36981C4.77674 7.27137 10.0596 7.27137 10.3924 7.36981Z" fill="#FAFAFA"/>
<path d="M19.6455 6.92919C19.533 6.95262 19.2986 7.03231 19.1299 7.112C18.8439 7.24794 18.6189 7.45887 16.1861 9.89169C13.4064 12.6761 13.2564 12.8448 13.0783 13.4354C12.9377 13.9042 12.4689 15.9339 12.4689 16.0792C12.4689 16.262 12.6611 16.4401 12.8533 16.4401C12.9377 16.4401 13.5564 16.3136 14.2221 16.1589C15.5346 15.8589 15.8111 15.7557 16.3736 15.3667C16.8283 15.0526 21.7455 10.1261 21.8861 9.84481C22.0221 9.56825 22.1252 9.15575 22.1252 8.86981C22.1252 7.5995 20.9439 6.67137 19.6455 6.92919Z" fill="#FAFAFA"/>
</svg>
